<svg xmlns="http://www.w3.org/2000/svg" width="1127.1" height="1109.18" viewBox="0 0 1127.1 1109.18"><defs><style>.a{fill:#88d8bd;}.b{fill:#eac1bb;}.c{fill:#c96bb7;}</style></defs><g transform="translate(-801.718 266.351)"><path class="a" d="M99,0H742a99,99,0,0,1,99,99V661a99,99,0,0,1-99,99H99A99,99,0,0,1,0,661V99A99,99,0,0,1,99,0Z" transform="matrix(0.809, -0.588, 0.588, 0.809, 801.718, 227.977)"/><rect class="b" width="635" height="574" rx="99" transform="matrix(0.809, -0.588, 0.588, 0.809, 939.711, 242.673)"/><rect class="c" width="515" height="466" rx="99" transform="matrix(0.809, -0.588, 0.588, 0.809, 995.992, 281.093)"/></g></svg>