<svg width="16" height="16" viewBox="0 0 16 16" fill="none" xmlns="http://www.w3.org/2000/svg">
<path fill-rule="evenodd" clip-rule="evenodd" d="M14.4697 15.5303C14.7626 15.8232 15.2374 15.8232 15.5303 15.5303C15.8232 15.2374 15.8232 14.7626 15.5303 14.4697L9.06066 8L15.5303 1.53033C15.8232 1.23744 15.8232 0.762564 15.5303 0.469671C15.2374 0.176777 14.7626 0.176777 14.4697 0.469671L8 6.93934L1.53033 0.46967C1.23744 0.176777 0.762564 0.176777 0.469671 0.46967C0.176778 0.762563 0.176778 1.23744 0.469671 1.53033L6.93934 8L0.46967 14.4697C0.176777 14.7626 0.176777 15.2374 0.46967 15.5303C0.762563 15.8232 1.23744 15.8232 1.53033 15.5303L8 9.06066L14.4697 15.5303Z" fill="white"/>
</svg>
