<svg width="24" height="24" viewBox="0 0 24 24" fill="none" xmlns="http://www.w3.org/2000/svg">
<circle cx="12" cy="19" r="5" fill="#121212"/>
<path d="M15.25 6C15.25 4.20507 13.7949 2.75 12 2.75C10.2051 2.75 8.75 4.20507 8.75 6C8.75 7.79493 10.2051 9.25 12 9.25C13.7949 9.25 15.25 7.79493 15.25 6Z" stroke="#121212" stroke-width="1.5"/>
<path d="M22.25 16C22.25 14.2051 20.7949 12.75 19 12.75H5C3.20507 12.75 1.75 14.2051 1.75 16C1.75 17.7949 3.20507 19.25 5 19.25H19C20.7949 19.25 22.25 17.7949 22.25 16Z" stroke="#121212" stroke-width="1.5"/>
<path d="M14 19L10 19" stroke="white" stroke-width="1.5" stroke-linecap="round"/>
<path d="M12 21L12 17" stroke="white" stroke-width="1.5" stroke-linecap="round"/>
</svg>
