<svg width="20" height="19" viewBox="0 0 20 19" fill="none" xmlns="http://www.w3.org/2000/svg">
<path d="M10.4094 17.9428L10.3976 17.9484L10.3861 17.9544C10.3233 17.987 10.2626 18.014 10.1843 18.0486C10.1339 18.071 10.0761 18.0966 10.0058 18.129C9.99626 18.1335 9.98647 18.138 9.9765 18.1427L9.61399 17.9544L9.60244 17.9484L9.5907 17.9428C8.19771 17.2797 5.96369 15.8762 4.08864 13.8373C2.21595 11.801 0.75 9.18719 0.75 6.07998C0.75 2.99215 2.93081 0.75 5.36588 0.75C6.99655 0.75 8.46662 1.69569 9.33282 3.38262L9.97716 4.63748L10.6571 3.40155C11.5378 1.8007 13.0253 0.75 14.6341 0.75C17.0692 0.75 19.25 2.99215 19.25 6.07998C19.25 9.18719 17.7841 11.801 15.9114 13.8373C14.0364 15.8762 11.8024 17.2797 10.4094 17.9428Z" fill="white" stroke="white" stroke-width="1.5"/>
</svg>
