<?xml version="1.0" encoding="UTF-8"?>
<svg width="3535px" height="980px" viewBox="0 0 3535 980" version="1.1" xmlns="http://www.w3.org/2000/svg" xmlns:xlink="http://www.w3.org/1999/xlink">
    <title>shone-logo</title>
    <g id="shone-logo" stroke="none" stroke-width="1" fill="none" fill-rule="evenodd">
        <g id="Group-22">
            <path d="M1567.6997,979.1514 C1470.0617,943.6664 1383.5877,875.6794 1323.8997,788.7004 C1293.7467,745.3804 1270.7107,697.0984 1254.8177,646.6074 C1239.1277,596.0084 1231.3577,542.9974 1231.0217,490.0054 C1231.3187,437.0084 1239.1437,384.0054 1254.7847,333.3924 C1270.6977,282.9064 1293.7037,234.6074 1323.8697,191.2884 C1383.5537,104.2984 1470.0507,36.3154 1567.6997,0.8584 C1474.2497,45.9234 1394.7667,116.2084 1340.0627,202.0474 C1312.9047,245.0294 1291.3167,291.4694 1277.3747,340.1934 C1263.0917,388.7774 1255.8187,439.3704 1255.9217,490.0054 C1255.6487,591.3024 1285.2367,692.2504 1340.0317,777.9824 C1394.7337,863.8324 1474.2367,934.1154 1567.6997,979.1514" id="Fill-2" fill="#FBB244"></path>
            <path d="M2002.4336,0.8428 C2100.0796,36.3238 2186.5666,104.3078 2246.2636,191.2888 C2276.4206,234.6108 2299.4586,282.8938 2315.3566,333.3878 C2331.0486,383.9888 2338.8216,437.0048 2339.1566,489.9998 C2338.8596,542.9988 2331.0346,596.0068 2315.3906,646.6208 C2299.4766,697.1118 2276.4656,745.4118 2246.2966,788.7318 C2186.6036,875.7238 2100.0956,943.7048 2002.4376,979.1568 C2095.8976,934.0968 2175.3906,863.8138 2230.1046,777.9718 C2257.2656,734.9888 2278.8576,688.5468 2292.8016,639.8218 C2307.0856,591.2338 2314.3606,540.6378 2314.2576,489.9998 C2314.5306,388.6958 2284.9356,287.7428 2230.1326,202.0078 C2175.4206,116.1558 2095.9076,45.8738 2002.4336,0.8428" id="Fill-4" fill="#FBB244"></path>
            <path d="M1771.752,816.3341 L1772.105,816.3341 C1788.544,816.3341 1804.94,815.0851 1820.837,812.6251 L1820.992,812.6021 C1978.806,788.6261 2097.814,649.9391 2097.814,490.0071 C2097.814,335.5871 1988.205,201.1211 1837.187,170.2831 C1816.144,165.9271 1794.475,163.7161 1772.628,163.6771 L1771.402,163.6771 C1591.505,163.7311 1445.154,310.1021 1445.154,490.0071 C1445.154,669.7451 1591.218,816.0121 1770.887,816.3341 L1771.752,816.3341 Z M1772.054,969.3671 L1771.335,969.3671 C1507.08,969.2891 1292.12,754.2801 1292.12,490.0071 C1292.12,225.6851 1507.162,10.6431 1771.484,10.6431 L1772.203,10.6431 C1804.594,10.6561 1836.827,13.9311 1868,20.3791 C2089.766,65.6691 2250.848,263.1891 2250.848,490.0071 C2250.848,605.3501 2209.279,716.8171 2133.809,803.8741 C2059.148,889.9891 1956.271,946.8101 1844.126,963.8781 C1820.545,967.5201 1796.296,969.3671 1772.054,969.3671 L1772.054,969.3671 Z" id="Fill-6" fill="#FBB244"></path>
            <path d="M1569.7534,478.9502 C1563.9754,478.9502 1558.0984,478.1392 1552.5224,476.6192 C1546.2374,474.8942 1543.1984,473.3742 1537.8274,469.6262 L1541.1714,463.3422 C1542.3874,464.2522 1543.6054,465.1662 1544.8204,465.9772 C1551.7114,470.3352 1561.0354,472.1592 1569.1444,472.1592 C1575.2264,472.1592 1587.5904,470.8412 1587.5904,462.4282 C1587.5904,455.8422 1581.1044,453.7132 1575.5284,453.5112 C1570.2594,453.3062 1565.0914,453.2062 1559.8194,453.1042 C1551.2044,452.9022 1541.7804,448.4422 1541.7804,438.6112 C1541.7804,426.5512 1554.8534,422.9022 1564.6844,422.9022 C1573.8064,422.9022 1583.8394,425.0292 1591.5444,430.1972 L1588.4014,436.3822 C1579.5844,431.0092 1575.3264,429.8952 1564.9884,429.8952 C1559.6174,429.8952 1548.6714,431.0092 1548.6714,438.5082 C1548.6714,444.1862 1554.7534,446.1112 1559.4154,446.2132 C1564.2794,446.3132 1569.1444,446.4152 1574.0084,446.5172 C1583.6374,446.7202 1594.5834,451.0772 1594.5834,462.3282 C1594.5834,475.4012 1580.3954,478.9502 1569.7534,478.9502" id="Fill-8" fill="#FBB244"></path>
            <polygon id="Fill-10" fill="#FBB244" points="1697.5229 477.0234 1697.5229 453.5104 1661.3389 453.5104 1661.3389 477.0234 1654.5479 477.0234 1654.5479 424.7274 1661.3389 424.7274 1661.3389 446.6174 1697.5229 446.6174 1697.5229 424.7274 1704.4139 424.7274 1704.4139 477.0234"></polygon>
            <polygon id="Fill-12" fill="#FBB244" points="1770.581 477.023 1777.472 477.023 1777.472 424.727 1770.581 424.727"></polygon>
            <polygon id="Fill-14" fill="#FBB244" points="1886.7793 477.0234 1849.9893 435.0644 1849.9893 477.0234 1843.1983 477.0234 1843.1983 424.7274 1849.9893 424.7274 1886.7793 466.5834 1886.7793 424.7274 1893.5703 424.7274 1893.5703 477.0234"></polygon>
            <polygon id="Fill-15" fill="#FBB244" points="1958.0137 477.0234 1958.0137 424.7274 2004.0287 424.7274 2004.0287 431.6174 1964.8047 431.6174 1964.8047 446.8194 1987.3037 446.8194 1987.3037 453.7124 1964.8047 453.7124 1964.8047 470.0304 2005.1407 470.0304 2005.1407 477.0234"></polygon>
            <path d="M1715.0918,549.6768 C1702.8638,549.6768 1690.0248,557.0138 1690.0248,570.5668 C1690.0248,584.7288 1702.6608,592.0658 1715.6008,592.0658 C1728.1348,592.0658 1740.8718,585.2378 1740.8718,571.2798 C1740.8718,557.1138 1727.9318,549.6768 1715.0918,549.6768 M1715.3978,598.9958 C1698.4838,598.9958 1683.1968,588.4998 1683.1968,570.4628 C1683.1968,553.1398 1698.9928,542.6458 1715.0918,542.6458 C1731.7008,542.6458 1747.8018,553.3458 1747.8018,571.2798 C1747.8018,589.3158 1731.9058,598.9958 1715.3978,598.9958" id="Fill-16" fill="#FBB244"></path>
            <polygon id="Fill-17" fill="#FBB244" points="1852.9434 597.0586 1815.9554 554.8726 1815.9554 597.0586 1809.1274 597.0586 1809.1274 544.4806 1815.9554 544.4806 1852.9434 586.5626 1852.9434 544.4806 1859.7714 544.4806 1859.7714 597.0586"></polygon>
            <path d="M172.292,739.2568 C106,739.2568 37.328,711.6798 0.975,670.5478 C1.691,661.4788 15.841,641.9098 22.732,632.3808 C41.173,607.2018 50.354,600.0518 53.814,598.0458 C81.209,620.7198 130.975,644.0798 172.292,644.0798 C243.038,644.0798 250.676,611.1608 250.676,597.0088 C250.676,566.2498 215.524,551.4858 174.822,534.3878 C114.635,509.7648 23.782,472.5928 23.782,383.3728 C23.782,299.1838 97.575,240.3838 203.234,240.3838 C262.919,240.3838 322.243,259.3298 358.737,289.9408 C358.738,290.0178 358.738,290.0988 358.738,290.1858 C358.738,296.2928 353.033,311.1118 340.289,330.4448 C315.818,368.7148 306.931,369.8188 305.999,369.8188 L306.393,370.1338 C285.266,354.1918 243.973,337.0348 203.234,337.0348 C141.132,337.0348 134.428,367.1238 134.428,380.0598 C134.428,406.6168 163.521,418.6128 200.351,433.8018 L204.089,435.3438 C266.875,460.7358 361.69,499.0798 361.69,597.0088 C361.69,678.1038 280.268,739.2568 172.292,739.2568" id="Fill-18" fill="#231F20"></path>
            <path d="M1006.1895,734.8369 C972.4285,734.8369 960.2935,732.8659 956.3895,730.9889 L956.3895,528.2029 L709.0145,528.2029 L709.0145,730.8579 C704.0665,733.4969 687.3375,734.8369 659.2195,734.8369 C631.0395,734.8369 614.1895,733.5589 609.0485,731.0409 L609.0485,248.2329 C614.1905,245.7119 631.0415,244.4369 659.2195,244.4369 C687.1815,244.4369 703.9065,245.7089 709.0145,248.2229 L709.0145,432.2889 L956.3895,432.2889 L956.3895,248.2809 C960.2945,246.4069 972.4305,244.4369 1006.1895,244.4369 C1040.2015,244.4369 1052.4235,246.4139 1056.3555,248.2909 L1056.3555,730.8449 C1051.3725,733.4939 1034.5205,734.8369 1006.1895,734.8369" id="Fill-19" fill="#231F20"></path>
            <path d="M2918.0586,739.627 C2914.0316,739.627 2905.6546,739.627 2903.7516,738.301 L2603.2006,448.08 L2603.2006,730.974 C2596.1496,734.837 2565.3196,734.837 2553.4046,734.837 C2541.5316,734.837 2510.9016,734.837 2503.6096,731.163 L2503.6096,239.743 C2504.7236,239.689 2506.2846,239.65 2508.4676,239.65 C2513.0806,239.65 2520.7236,239.65 2522.8736,241.092 L2822.5826,537.623 L2822.5826,248.11 C2829.8776,244.437 2860.5076,244.437 2872.3806,244.437 C2884.3446,244.437 2915.2096,244.437 2922.5526,248.12 L2922.5526,739.547 C2921.5066,739.595 2920.0586,739.627 2918.0586,739.627" id="Fill-20" fill="#231F20"></path>
            <path d="M3199.3232,731.5244 L3199.3232,248.4874 L3530.8432,248.1234 C3535.0242,254.4404 3535.0242,285.3274 3535.0242,295.7074 C3535.0242,323.4164 3533.5892,339.6584 3530.7532,344.0374 L3299.2902,344.0374 L3299.2902,441.4934 L3492.8112,441.4934 C3496.3492,447.3174 3496.3492,473.0404 3496.3492,481.7204 C3496.3492,490.4804 3496.3492,516.4324 3492.7952,522.3074 L3299.2902,522.3074 L3299.2902,635.6294 L3530.6172,635.2434 C3535.0242,641.3784 3535.0242,672.9744 3535.0242,683.5634 C3535.0242,711.0614 3533.5922,727.1774 3530.7652,731.5244 L3199.3232,731.5244 Z" id="Fill-21" fill="#231F20"></path>
        </g>
    </g>
</svg>