<svg viewBox="0 0 44 45" fill="none" xmlns="http://www.w3.org/2000/svg">
<path d="M22 44.6544C9.85417 44.6544 0 34.8003 0 22.6544C0 10.5086 9.85417 0.654419 22 0.654419C34.1458 0.654419 44 10.5086 44 22.6544C44 34.8003 34.1458 44.6544 22 44.6544ZM22 3.08359C11.2292 3.08359 2.42917 11.8836 2.42917 22.6544C2.42917 33.4253 11.2292 42.2253 22 42.2253C32.7708 42.2253 41.5708 33.4253 41.5708 22.6544C41.5708 11.8836 32.7708 3.08359 22 3.08359Z" fill="#51AB26"/>
<path d="M19.6167 28.6127C19.2958 28.6127 18.975 28.4752 18.7458 28.2461L14.0708 23.5711C13.6125 23.1127 13.5208 22.3336 13.9333 21.8752C14.3917 21.3252 15.2167 21.2794 15.7208 21.7836L19.6167 25.6794C19.6167 25.6794 19.6167 25.6794 19.6625 25.6794L28.325 17.0169C28.7833 16.5586 29.5167 16.4669 30.0208 16.8794C30.5708 17.3377 30.6167 18.1627 30.1125 18.6669L20.4875 28.2919C20.2583 28.5211 19.9375 28.6127 19.6167 28.6127Z" fill="#51AB26"/>
</svg>
